# xmcd
#
# Track frame offsets:
#	150
#	19245
#	37500
#	53670
#	69103
#	85175
#	102511
#	118560
#	134426
#	147059
#	164150
#	184661
#	201642
#	218145
#	234600
#	251806
#	266612
#	283118
#	300757
#
# Disc length: 4224 seconds
# Revision: 0
# Processed by: cddbd v1.5.2PL0 Copyright (c) Steve Scherf et al.
# Submitted via: dBpowerAMP V12.0
#
DISCID=10107e13
DTITLE=Various Artist - Country Radio March 2009
DYEAR=2009
DGENRE=Country
TTITLE0=Billy Ray Cyrus - Back To Tennessee
TTITLE1=Rascal Flatts - Her Comes Goodbye
TTITLE2=James Otto - These Are The Good Ole Days
TTITLE3=Zac Brown Band - Whatever It Is
TTITLE4=Caitlin and Will - Even Now
TTITLE5=Deric Ruttan - California Plates
TTITLE6=Bomshel - Fight Like A Girl
TTITLE7=Holly Williams - Keep The Change
TTITLE8=Eric Church - Love Your Love The Most
TTITLE9=George Canyon - All Or Nothing
TTITLE10=Jamey Johnson - High Cost Of Living
TTITLE11=Lady Antebellum - I Run To You
TTITLE12=Keith Anderson - She Could`ve Been Mine
TTITLE13=Craig Morgan - God Must Really Love Me
TTITLE14=John Rich - Another You
TTITLE15=Randy Owen and Megan Mullins - Holding Everything
TTITLE16=Gord Bamford - Little Guy
TTITLE17=Chuck Wills - Man Of The House
TTITLE18=Brooks and Dunn Feat Reba McEntire - Cowgirls Don`t Cry
EXTD=
EXTT0=
EXTT1=
EXTT2=
EXTT3=
EXTT4=
EXTT5=
EXTT6=
EXTT7=
EXTT8=
EXTT9=
EXTT10=
EXTT11=
EXTT12=
EXTT13=
EXTT14=
EXTT15=
EXTT16=
EXTT17=
EXTT18=
PLAYORDER=
